# xmcd
#
# Track frame offsets: 
#        150
#        13358
#        26188
#        41918
#        53171
#        79241
#        86317
#        98189
#        109652
#        123752
#        137327
#        153194
#        165856
#        179053
#        191111
#        204221
#
# Disc length: 2888 seconds
#
# Revision: 1
# Processed by: cddbd v1.5.2PL0 Copyright (c) Steve Scherf et al.
# Submitted via: ExactAudioCopy v1.3
#
DISCID=cb0b4610
DTITLE=Paběrky Marko Čermáka - Master Serie
DYEAR=1998
DGENRE=Bluegrass
TTITLE0=Co si tu počít
TTITLE1=Žeň je dál
TTITLE2=Běžte telátka malý
TTITLE3=Joe Bowers
TTITLE4=Cesta do Mexika
TTITLE5=Texaská stezka
TTITLE6=Vítr
TTITLE7=Láska lehkomyslná
TTITLE8=Kalifornie
TTITLE9=V údolí dole
TTITLE10=Jsem unavený
TTITLE11=Sladká Betsy z Pike
TTITLE12=Dva tuláci
TTITLE13=Tak se toulám
TTITLE14=Ať nepohřbíváš
TTITLE15=Půlnoční rychlík
EXTD=YEAR: 1998
EXTT0=
EXTT1=
EXTT2=
EXTT3=
EXTT4=
EXTT5=
EXTT6=
EXTT7=
EXTT8=
EXTT9=
EXTT10=
EXTT11=
EXTT12=
EXTT13=
EXTT14=
EXTT15=
PLAYORDER=
